<svg fill="none" height="53" viewBox="0 0 117 53" width="117" xmlns="http://www.w3.org/2000/svg" xmlns:xlink="http://www.w3.org/1999/xlink"><clipPath id="a"><path d="m8.39355 14.8084h24v24h-24z"/></clipPath><path d="m44.738 40.8084 10.209-29.93h9.512l10.496 29.93h-5.986l-2.747-7.954h-13.038l-2.624 7.954zm10.086-12.874h9.717l-4.141-12.177h-1.517zm24.1327 12.874v-25.666h-2.788v-4.264h8.487v29.93zm15.3622-24.928c-1.1207 0-1.9544-.287-2.501-.861-.5194-.6013-.779-1.353-.779-2.255s.2596-1.64.779-2.214c.5466-.57399 1.3803-.86099 2.501-.86099 1.0933 0 1.8996.287 2.419.86099.5466.574.82 1.312.82 2.214s-.2734 1.6537-.82 2.255c-.5194.574-1.3257.861-2.419.861zm-2.091 24.928v-17.999h-3.116v-4.264h8.815v22.263zm12.8001 0v-17.712h-2.788v-4.182h2.788v-.902c0-2.542.697-4.4143 2.091-5.617 1.421-1.23 3.512-1.845 6.273-1.845h2.788v4.387h-3.198c-.847 0-1.503.2323-1.968.697-.437.4373-.656 1.066-.656 1.886v1.394h6.191v4.182h-6.191v17.712z" fill="#fff"/><rect fill="#fff" height="40" rx="20" width="40" x=".393555" y="6.80841"/><g clip-path="url(#a)"><path d="m15.6313 25.9459c-.375-.375-.9-.375-1.125.1125l-5.6625 11.3625c-.225.4125.1125 1.0125.6375 1.0125h7.9125c.2625 0 .525-.15.6375-.375 1.6875-3.5625.6375-8.925-2.4-12.1125zm4.2-10.3875c-5.475 8.775-.375 15.7875 2.9625 22.5.1125.225.375.375.6375.375h7.9125c.525 0 .8625-.525.6375-1.0125 0 0-10.6125-21.3375-10.875-21.8625-.3375-.4875-.975-.4875-1.275 0z" fill="#3056d3"/></g></svg>